<?xml version="1.0" encoding="UTF-8"?>
<svg xmlns="http://www.w3.org/2000/svg" xmlns:xlink="http://www.w3.org/1999/xlink" width="375pt" height="374.999991pt" viewBox="0 0 375 374.999991" version="1.2">
<defs>
<clipPath id="clip1">
  <path d="M 43.609375 7.359375 L 331.386719 7.359375 L 331.386719 367.359375 L 43.609375 367.359375 Z M 43.609375 7.359375 "/>
</clipPath>
</defs>
<g id="surface1">
<g clip-path="url(#clip1)" clip-rule="nonzero">
<path style=" stroke:none;fill-rule:nonzero;fill:rgb(0%,4.708862%,10.5896%);fill-opacity:1;" d="M 79.609375 7.359375 L 295.609375 7.359375 C 315.464844 7.359375 331.609375 23.503906 331.609375 43.359375 L 331.609375 331.355469 C 331.609375 351.210938 315.464844 367.355469 295.609375 367.355469 L 79.609375 367.355469 C 59.753906 367.355469 43.609375 351.210938 43.609375 331.355469 L 43.609375 43.359375 C 43.609375 23.503906 59.753906 7.359375 79.609375 7.359375 Z M 133.609375 277.359375 L 97.609375 277.359375 L 97.609375 313.359375 L 133.609375 313.359375 Z M 133.609375 205.359375 L 97.609375 205.359375 L 97.609375 241.359375 L 133.609375 241.359375 Z M 133.609375 133.359375 L 97.609375 133.359375 L 97.609375 169.359375 L 133.609375 169.359375 Z M 277.609375 277.359375 L 169.609375 277.359375 L 169.609375 313.359375 L 277.609375 313.359375 Z M 277.609375 205.359375 L 205.609375 205.359375 L 205.609375 241.359375 L 277.609375 241.359375 Z M 277.609375 133.359375 L 169.609375 133.359375 L 169.609375 169.359375 L 277.609375 169.359375 Z M 277.609375 61.359375 L 97.609375 61.359375 L 97.609375 97.359375 L 277.609375 97.359375 Z M 277.609375 61.359375 "/>
</g>
</g>
</svg>
